<?xml version="1.0" encoding="utf-8"?><!-- Uploaded to: SVG Repo, www.svgrepo.com, Generator: SVG Repo Mixer Tools -->
<svg
  fill="#000000"
  width="800px"
  height="800px"
  viewBox="0 0 24 24"
  id="bookmark-alt"
  data-name="Flat Color"
  xmlns="http://www.w3.org/2000/svg"
  class="icon flat-color"
>
  <path
    id="primary"
    d="M19,2H7A3,3,0,0,0,4,5V19a3,3,0,0,0,3,3H18a2,2,0,0,0,2-2V3A1,1,0,0,0,19,2Z"
    style="fill: #1db954"
  ></path>
  <path
    id="secondary"
    d="M18,6H7A1,1,0,0,1,6,5H6A1,1,0,0,1,7,4H18ZM9,8v7l3-2,3,2V8Z"
    style="fill: #6c63ff"
  ></path>
</svg>
