<svg
  width="764"
  height="120"
  viewBox="0 0 764 120"
  fill="none"
  xmlns="http://www.w3.org/2000/svg"
>
  <path
    d="M199.56 39.1V85H188.31V80.95C184.26 84.37 179.04 86.35 173.37 86.35C160.14 86.35 149.52 75.55 149.52 62.05C149.52 48.55 160.14 37.75 173.37 37.75C179.04 37.75 184.26 39.73 188.31 43.15V39.1H199.56ZM162.03 62.05C162.03 69.61 167.7 75.37 174.9 75.37C182.01 75.37 187.68 69.61 187.68 62.05C187.68 54.49 182.01 48.73 174.9 48.73C167.7 48.73 162.03 54.49 162.03 62.05ZM237.169 39.1H249.049L248.959 66.91C248.869 78.43 240.319 86.35 227.989 86.35C215.839 86.35 207.829 78.61 207.829 66.91V39.1H219.709V64.93C219.709 71.23 223.129 75.37 228.259 75.37C233.659 75.37 237.169 71.14 237.169 65.02V39.1ZM255.604 62.05C255.604 48.55 266.224 37.75 279.454 37.75C284.854 37.75 289.804 39.55 293.764 42.61V19.3H305.644V85H294.574V80.77C290.524 84.28 285.214 86.35 279.454 86.35C266.224 86.35 255.604 75.55 255.604 62.05ZM268.114 62.05C268.114 69.61 273.784 75.37 280.984 75.37C288.094 75.37 293.764 69.61 293.764 62.05C293.764 54.49 288.094 48.73 280.984 48.73C273.784 48.73 268.114 54.49 268.114 62.05ZM312.203 25.51C312.203 21.37 315.533 18.31 319.763 18.31C324.083 18.31 327.503 21.37 327.503 25.51C327.503 29.56 324.083 32.71 319.763 32.71C315.533 32.71 312.203 29.65 312.203 25.51ZM313.913 85V39.1H325.793V85H313.913ZM332.42 62.05C332.42 48.55 343.67 37.75 357.8 37.75C372.02 37.75 383.27 48.46 383.27 62.05C383.27 75.55 372.02 86.35 357.8 86.35C343.67 86.35 332.42 75.55 332.42 62.05ZM344.93 62.05C344.93 69.52 350.6 75.37 357.8 75.37C365.09 75.37 370.67 69.52 370.67 62.05C370.67 54.58 365.09 48.73 357.8 48.73C350.6 48.73 344.93 54.58 344.93 62.05ZM436.649 72.04C432.869 80.77 423.959 86.35 413.789 86.35C399.569 86.35 388.319 75.55 388.319 62.05C388.319 48.55 399.569 37.75 413.699 37.75C423.059 37.75 431.339 42.34 435.479 49.9L424.859 55.75C422.879 51.43 418.649 48.73 413.699 48.73C406.499 48.73 400.829 54.58 400.829 62.05C400.829 69.52 406.499 75.37 413.699 75.37C419.189 75.37 423.959 71.95 425.669 66.82L436.649 72.04ZM489.951 39.1V85H478.701V80.95C474.651 84.37 469.431 86.35 463.761 86.35C450.531 86.35 439.911 75.55 439.911 62.05C439.911 48.55 450.531 37.75 463.761 37.75C469.431 37.75 474.651 39.73 478.701 43.15V39.1H489.951ZM452.421 62.05C452.421 69.61 458.091 75.37 465.291 75.37C472.401 75.37 478.071 69.61 478.071 62.05C478.071 54.49 472.401 48.73 465.291 48.73C458.091 48.73 452.421 54.49 452.421 62.05ZM498.22 85V19.3H510.1V85H498.22ZM563.167 76.99C558.487 83.02 551.197 86.35 542.647 86.35C527.707 86.35 516.727 76.09 516.727 62.23C516.727 48.46 527.527 37.75 541.387 37.75C554.887 37.75 564.697 48.1 564.697 61.69C564.697 63.04 564.607 64.75 564.427 66.46H529.777C530.947 72.04 535.537 75.64 542.377 75.64C547.057 75.64 550.387 73.93 553.717 69.97L563.167 76.99ZM530.137 57.01H552.007C551.287 51.79 547.147 48.28 541.297 48.28C535.267 48.28 531.577 51.97 530.137 57.01ZM571.169 85V39.1H582.239V42.34C585.029 39.28 589.439 37.57 594.659 37.57C605.369 37.57 612.839 45.13 612.839 56.02V85H600.959V58C600.959 52.6 597.359 48.55 592.229 48.55C587.099 48.55 583.049 52.6 583.049 57.64V85H571.169ZM619.471 62.05C619.471 48.55 630.091 37.75 643.321 37.75C648.721 37.75 653.671 39.55 657.631 42.61V19.3H669.511V85H658.441V80.77C654.391 84.28 649.081 86.35 643.321 86.35C630.091 86.35 619.471 75.55 619.471 62.05ZM631.981 62.05C631.981 69.61 637.651 75.37 644.851 75.37C651.961 75.37 657.631 69.61 657.631 62.05C657.631 54.49 651.961 48.73 644.851 48.73C637.651 48.73 631.981 54.49 631.981 62.05ZM726.201 39.1V85H714.951V80.95C710.901 84.37 705.681 86.35 700.011 86.35C686.781 86.35 676.161 75.55 676.161 62.05C676.161 48.55 686.781 37.75 700.011 37.75C705.681 37.75 710.901 39.73 714.951 43.15V39.1H726.201ZM688.671 62.05C688.671 69.61 694.341 75.37 701.541 75.37C708.651 75.37 714.321 69.61 714.321 62.05C714.321 54.49 708.651 48.73 701.541 48.73C694.341 48.73 688.671 54.49 688.671 62.05ZM734.47 85V39.1H745.54V42.97C748.15 39.55 752.11 37.57 756.52 37.57C758.5 37.57 760.57 38.02 762.64 38.83L757.69 50.17C756.25 49.54 755.35 49.27 754 49.27C748.96 49.27 746.35 52.96 746.35 60.07V85H734.47Z"
    fill="white"
  />
  <path
    d="M102.426 17.5738C91.0939 6.24096 76.0267 0 60 0C43.9735 0 28.9061 6.24096 17.5735 17.5738C6.24096 28.9061 0 43.9733 0 60C0 76.0267 6.24096 91.0939 17.5735 102.426C28.9061 113.759 43.9735 120 60 120C76.0267 120 91.0939 113.759 102.426 102.426C113.759 91.0939 120 76.0267 120 60C120 43.9733 113.759 28.9061 102.426 17.5738ZM60 115.219C29.552 115.219 4.78088 90.448 4.78088 60C4.78088 29.552 29.552 4.78088 60 4.78088C90.448 4.78088 115.219 29.552 115.219 60C115.219 90.448 90.448 115.219 60 115.219Z"
    fill="white"
  />
  <path
    d="M60.0001 51.8726C55.5185 51.8726 51.8726 55.5185 51.8726 60.0001C51.8726 64.4817 55.5185 68.1276 60.0001 68.1276C64.4816 68.1276 68.1275 64.4817 68.1275 60.0001C68.1275 55.5185 64.4816 51.8726 60.0001 51.8726ZM60.0001 63.3467C58.1546 63.3467 56.6534 61.8455 56.6534 60.0001C56.6534 58.1546 58.1546 56.6534 60.0001 56.6534C61.8455 56.6534 63.3467 58.1546 63.3467 60.0001C63.3467 61.8455 61.8455 63.3467 60.0001 63.3467Z"
    fill="white"
  />
  <path
    d="M60 38.7251C48.269 38.7251 38.7251 48.269 38.7251 60C38.7251 71.7311 48.269 81.2749 60 81.2749C71.7311 81.2749 81.2749 71.7311 81.2749 60C81.2749 48.269 71.7311 38.7251 60 38.7251ZM60 76.4941C50.9051 76.4941 43.506 69.0949 43.506 60C43.506 50.9051 50.9051 43.506 60 43.506C69.0949 43.506 76.4941 50.9051 76.4941 60C76.4941 69.0949 69.0949 76.4941 60 76.4941Z"
    fill="white"
  />
  <path
    d="M51.1528 14.6691C51.2964 14.6691 51.442 14.6562 51.5885 14.6292C54.3428 14.1217 57.1728 13.8645 60 13.8645C61.32 13.8645 62.3905 12.7941 62.3905 11.4741C62.3905 10.1541 61.32 9.08364 60 9.08364C56.8831 9.08364 53.7617 9.36762 50.7225 9.92747C49.424 10.1665 48.5656 11.4129 48.8046 12.7114C49.0167 13.8633 50.0218 14.6691 51.1528 14.6691Z"
    fill="white"
  />
  <path
    d="M40.6278 15.4305C40.0419 14.2475 38.6082 13.7644 37.4246 14.3498C29.0473 18.5001 21.97 24.8759 16.9579 32.7877C11.8065 40.9198 9.08359 50.3297 9.08359 60C9.08359 61.32 10.1538 62.3904 11.474 62.3904C12.7943 62.3904 13.8645 61.32 13.8645 60C13.8645 42.3328 23.7054 26.4822 39.5471 18.6337C40.7301 18.0476 41.214 16.6136 40.6278 15.4305Z"
    fill="white"
  />
</svg>
